<?xml version="1.0" encoding="utf-8"?>
<!-- Generator: Adobe Illustrator 17.0.2, SVG Export Plug-In . SVG Version: 6.00 Build 0)  -->
<!DOCTYPE svg PUBLIC "-//W3C//DTD SVG 1.1//EN" "http://www.w3.org/Graphics/SVG/1.1/DTD/svg11.dtd">
<svg version="1.1" id="Layer_1" xmlns="http://www.w3.org/2000/svg" xmlns:xlink="http://www.w3.org/1999/xlink" x="0px" y="0px"
	 width="202.883px" height="64.711px" viewBox="0 0 202.883 84.711" preserveAspectRatio="xMinYMax meet" enable-background="new 0 0 202.883 84.711"
	 xml:space="preserve">
<g>
	<defs>
		<path id="SVGID_1_" d="M11.717,7.149h-0.65L11.03,6.842c-0.421-1.727-0.879-2.609-1.832-3.338C8.359,2.851,7.326,2.466,6.22,2.466
			c-2.29,0-3.931,1.498-3.931,3.494c0,1.075,0.533,2.265,1.411,3.109c0.535,0.499,1.145,0.958,1.83,1.421
			c0.498,0.306,1.337,0.843,2.521,1.571c1.758,1.115,2.636,1.805,3.396,2.728c0.955,1.151,1.452,2.417,1.452,3.799
			c0,3.453-2.788,6.257-6.223,6.257c-1.184,0-1.832-0.155-3.626-0.729c-0.877-0.308-1.223-0.422-1.376-0.422
			c-0.38,0-0.646,0.267-0.838,0.844H0.188v-5.95h0.649l0.039,0.423c0.303,2.072,0.724,2.878,1.983,3.838
			c0.916,0.767,2.064,1.15,3.247,1.15c2.633,0,4.389-1.612,4.389-3.991c0-1.342-0.497-2.265-1.833-3.34
			c-0.803-0.69-1.639-1.304-2.556-1.879c-1.413-0.923-2.331-1.498-2.826-1.843c-0.536-0.385-1.071-0.885-1.567-1.459
			c-0.951-1.189-1.411-2.495-1.411-4.029c0-3.378,2.443-5.682,5.954-5.682c1.108,0,1.756,0.115,3.054,0.537
			c0.764,0.269,1.031,0.308,1.26,0.308c0.306,0,0.42-0.117,0.534-0.462c0-0.037,0.04-0.075,0.04-0.152h0.573V7.149z"/>
	</defs>
	<clipPath id="SVGID_2_">
		<use xlink:href="#SVGID_1_"  overflow="visible"/>
	</clipPath>

		<rect x="-4.812" y="-3.224" clip-path="url(#SVGID_2_)" fill-rule="evenodd" clip-rule="evenodd" fill="#4F4747" width="22.712" height="33.069"/>
</g>
<path fill="none" stroke="#F3F3F3" stroke-width="0.375" stroke-miterlimit="10" d="M11.717,7.149h-0.65L11.03,6.842
	c-0.421-1.728-0.879-2.609-1.832-3.338C8.359,2.851,7.326,2.466,6.22,2.466c-2.29,0-3.931,1.498-3.931,3.494
	c0,1.075,0.533,2.265,1.411,3.109c0.535,0.499,1.145,0.959,1.83,1.421c0.498,0.306,1.337,0.843,2.521,1.572
	c1.758,1.115,2.636,1.805,3.396,2.727c0.954,1.151,1.452,2.418,1.452,3.8c0,3.453-2.788,6.257-6.222,6.257
	c-1.184,0-1.832-0.154-3.626-0.729c-0.877-0.308-1.223-0.422-1.376-0.422c-0.38,0-0.646,0.268-0.838,0.844H0.188v-5.95h0.649
	l0.039,0.422c0.303,2.073,0.724,2.878,1.983,3.839c0.917,0.767,2.064,1.15,3.247,1.15c2.633,0,4.389-1.612,4.389-3.991
	c0-1.343-0.497-2.265-1.833-3.34c-0.803-0.69-1.639-1.304-2.556-1.879c-1.413-0.923-2.331-1.498-2.825-1.843
	c-0.536-0.384-1.071-0.884-1.567-1.458c-0.952-1.189-1.411-2.496-1.411-4.029c0-3.378,2.442-5.682,5.954-5.682
	c1.108,0,1.756,0.114,3.054,0.537c0.764,0.269,1.031,0.308,1.261,0.308c0.306,0,0.42-0.116,0.534-0.461
	c0-0.037,0.04-0.075,0.04-0.152h0.573V7.149z"/>
<g>
	<defs>
		<path id="SVGID_3_" d="M28.631,20.43v1.306c0,1.458,0.533,1.919,2.135,1.919h0.191v0.538l-4.923,0.382V22.08h-0.077
			c-1.337,1.728-2.902,2.572-4.771,2.572c-2.714,0-4.429-1.882-4.429-4.874v-5.873l-0.037-0.691c0-1.343-0.383-1.688-1.909-1.766
			h-0.421v-0.652l4.964-0.461v9.71c0,1.844,1.259,3.074,3.089,3.074c1.299,0,2.483-0.732,3.591-2.228V13.56
			c0-1.842-0.305-2.112-2.635-2.112v-0.652l5.231-0.461V20.43z"/>
	</defs>
	<clipPath id="SVGID_4_">
		<use xlink:href="#SVGID_3_"  overflow="visible"/>
	</clipPath>

		<rect x="9.391" y="5.335" clip-path="url(#SVGID_4_)" fill-rule="evenodd" clip-rule="evenodd" fill="#4F4747" width="26.567" height="24.317"/>
</g>
<path fill="none" stroke="#F3F3F3" stroke-width="0.375" stroke-miterlimit="10" d="M28.631,20.43v1.306
	c0,1.458,0.533,1.919,2.135,1.919h0.191v0.538l-4.923,0.382V22.08h-0.077c-1.337,1.728-2.902,2.572-4.771,2.572
	c-2.714,0-4.429-1.882-4.429-4.875v-5.872l-0.037-0.691c0-1.344-0.383-1.689-1.909-1.766h-0.421v-0.653l4.964-0.46v9.71
	c0,1.843,1.259,3.074,3.089,3.074c1.3,0,2.483-0.732,3.591-2.228v-7.33c0-1.842-0.305-2.112-2.635-2.112v-0.653l5.231-0.46V20.43z"
	/>
<g>
	<defs>
		<path id="SVGID_5_" d="M37.222,13.061c1.565-1.803,3.131-2.649,4.848-2.649c2.826,0,4.619,1.919,4.619,5.068v5.564
			c0,2.15,0.344,2.611,1.871,2.611h0.381v0.652h-7.215v-0.652h0.382c1.564,0,1.909-0.461,1.909-2.611v-5.489
			c0-2.724-0.878-3.837-2.976-3.837c-1.339,0-2.521,0.767-3.819,2.609v6.717c0,2.15,0.345,2.611,1.869,2.611h0.382v0.652h-7.098
			v-0.652h0.38c1.528,0,1.91-0.461,1.91-2.611v-7.599c0-1.534-0.421-1.958-1.948-1.997h-0.382v-0.652l4.887-0.422V13.061z"/>
	</defs>
	<clipPath id="SVGID_6_">
		<use xlink:href="#SVGID_5_"  overflow="visible"/>
	</clipPath>

		<rect x="27.335" y="5.374" clip-path="url(#SVGID_6_)" fill-rule="evenodd" clip-rule="evenodd" fill="#4F4747" width="26.606" height="23.933"/>
</g>
<path fill="none" stroke="#F3F3F3" stroke-width="0.375" stroke-miterlimit="10" d="M37.222,13.06
	c1.565-1.803,3.131-2.648,4.848-2.648c2.826,0,4.619,1.918,4.619,5.067v5.565c0,2.15,0.344,2.61,1.871,2.61h0.381v0.653h-7.215
	v-0.653h0.382c1.564,0,1.909-0.46,1.909-2.61v-5.489c0-2.724-0.878-3.837-2.976-3.837c-1.338,0-2.521,0.767-3.819,2.609v6.717
	c0,2.15,0.345,2.61,1.869,2.61h0.382v0.653h-7.098v-0.653h0.38c1.528,0,1.91-0.46,1.91-2.61v-7.599c0-1.534-0.421-1.957-1.948-1.997
	h-0.382v-0.653l4.887-0.421V13.06z"/>
<g>
	<defs>
		<path id="SVGID_7_" d="M55.09,21.044c0,2.187,0.344,2.61,1.869,2.61h0.571v0.653h-7.516v-0.653h0.648
			c1.604,0,1.87-0.423,1.87-2.686V3.886c0-2.188-0.266-2.571-1.755-2.571h-0.994V0.624l5.307-0.421V21.044z"/>
	</defs>
	<clipPath id="SVGID_8_">
		<use xlink:href="#SVGID_7_"  overflow="visible"/>
	</clipPath>

		<rect x="44.783" y="-4.797" clip-path="url(#SVGID_8_)" fill-rule="evenodd" clip-rule="evenodd" fill="#4F4747" width="17.747" height="34.104"/>
</g>
<path fill="none" stroke="#F3F3F3" stroke-width="0.375" stroke-miterlimit="10" d="M55.09,21.044c0,2.187,0.344,2.61,1.869,2.61
	h0.571v0.653h-7.516v-0.653h0.648c1.604,0,1.87-0.423,1.87-2.687V3.886c0-2.188-0.266-2.571-1.755-2.571h-0.994V0.624l5.307-0.421
	V21.044z"/>
<g>
	<defs>
		<path id="SVGID_9_" d="M66.543,16.938c-0.57,0.268-0.725,0.346-1.565,0.614c-2.558,0.844-3.282,1.535-3.282,3.222
			c0,1.422,0.955,2.573,2.099,2.573c1.069,0,2.061-0.615,2.748-1.727V16.938z M71.506,21.889c-0.038,1.613-1.145,2.763-2.671,2.763
			c-1.11,0-1.793-0.536-2.293-1.842c-1.335,1.383-2.174,1.842-3.586,1.842c-2.137,0-3.894-1.612-3.894-3.569
			c0-1.958,1.222-3.032,4.506-3.954c1.983-0.575,2.405-0.691,2.974-1.036v-0.999c0-1.957-1.22-3.337-3.017-3.337
			c-1.563,0-2.707,0.881-3.472,2.647l-0.114,0.307l-0.649-0.192c0.571-2.495,2.557-4.107,5.002-4.107
			c1.794,0,3.433,0.846,4.236,2.189c0.499,0.844,0.651,1.535,0.651,3.492v5.066c0,1.573,0.15,2.035,0.725,2.035
			c0.457,0,0.761-0.424,0.954-1.305H71.506z"/>
	</defs>
	<clipPath id="SVGID_10_">
		<use xlink:href="#SVGID_9_"  overflow="visible"/>
	</clipPath>

		<rect x="54.062" y="5.412" clip-path="url(#SVGID_10_)" fill-rule="evenodd" clip-rule="evenodd" fill="#4F4747" width="22.444" height="24.24"/>
</g>
<path fill="none" stroke="#F3F3F3" stroke-width="0.375" stroke-miterlimit="10" d="M66.542,16.937
	c-0.569,0.269-0.725,0.346-1.565,0.615c-2.558,0.843-3.282,1.534-3.282,3.222c0,1.422,0.956,2.572,2.1,2.572
	c1.069,0,2.062-0.615,2.748-1.727V16.937z M71.506,21.888c-0.038,1.613-1.145,2.764-2.671,2.764c-1.11,0-1.793-0.536-2.293-1.842
	c-1.334,1.383-2.174,1.842-3.586,1.842c-2.137,0-3.894-1.612-3.894-3.569c0-1.958,1.222-3.032,4.506-3.954
	c1.983-0.576,2.405-0.691,2.974-1.036v-1c0-1.956-1.22-3.336-3.017-3.336c-1.563,0-2.707,0.88-3.472,2.646l-0.114,0.308
	l-0.649-0.193c0.571-2.495,2.557-4.106,5.002-4.106c1.794,0,3.433,0.845,4.236,2.188c0.499,0.844,0.651,1.535,0.651,3.493v5.065
	c0,1.573,0.15,2.036,0.725,2.036c0.457,0,0.761-0.424,0.954-1.306H71.506z"/>
<g>
	<defs>
		<path id="SVGID_11_" d="M77.235,13.061c1.567-1.803,3.128-2.649,4.85-2.649c2.824,0,4.616,1.919,4.616,5.068v5.564
			c0,2.15,0.344,2.611,1.874,2.611h0.379v0.652h-7.215v-0.652h0.382c1.566,0,1.91-0.461,1.91-2.611v-5.489
			c0-2.724-0.88-3.837-2.979-3.837c-1.336,0-2.52,0.767-3.817,2.609v6.717c0,2.15,0.343,2.611,1.871,2.611h0.382v0.652h-7.101
			v-0.652h0.383c1.527,0,1.907-0.461,1.907-2.611v-7.599c0-1.534-0.417-1.958-1.946-1.997h-0.383v-0.652l4.887-0.422V13.061z"/>
	</defs>
	<clipPath id="SVGID_12_">
		<use xlink:href="#SVGID_11_"  overflow="visible"/>
	</clipPath>

		<rect x="67.348" y="5.374" clip-path="url(#SVGID_12_)" fill-rule="evenodd" clip-rule="evenodd" fill="#4F4747" width="26.606" height="23.933"/>
</g>
<path fill="none" stroke="#F3F3F3" stroke-width="0.375" stroke-miterlimit="10" d="M77.235,13.06
	c1.567-1.803,3.128-2.648,4.85-2.648c2.824,0,4.616,1.918,4.616,5.067v5.565c0,2.15,0.344,2.61,1.874,2.61h0.379v0.653h-7.215
	v-0.653h0.382c1.566,0,1.91-0.46,1.91-2.61v-5.489c0-2.724-0.88-3.837-2.979-3.837c-1.337,0-2.52,0.767-3.817,2.609v6.717
	c0,2.15,0.343,2.61,1.871,2.61h0.382v0.653h-7.101v-0.653h0.383c1.527,0,1.907-0.46,1.907-2.61v-7.599
	c0-1.534-0.417-1.957-1.946-1.997h-0.383v-0.653l4.887-0.421V13.06z"/>
<g>
	<defs>
		<path id="SVGID_13_" d="M100.715,13.445c-1.108-1.46-2.558-2.264-3.931-2.264c-2.443,0-4.085,2.186-4.085,5.487
			c0,3.263,1.527,6.064,3.663,6.719c0.498,0.191,1.607,0.307,2.33,0.307c1.414,0,2.023-0.615,2.023-2.074V13.445z M103.312,21.044
			c0,1.92,0.306,2.496,1.259,2.534l0.649,0.038l0.382,0.038v0.653l-7.864,0.038c-2.443,0.039-3.817-0.346-5.498-1.803
			c-1.562-1.383-2.405-3.188-2.405-5.298c0-3.799,2.826-6.832,6.34-6.832c1.45,0,2.825,0.461,4.541,1.573V3.656
			c0-1.958-0.382-2.418-1.947-2.418h-1.222V0.586l5.766-0.383V21.044z"/>
	</defs>
	<clipPath id="SVGID_14_">
		<use xlink:href="#SVGID_13_"  overflow="visible"/>
	</clipPath>

		<rect x="84.834" y="-4.797" clip-path="url(#SVGID_14_)" fill-rule="evenodd" clip-rule="evenodd" fill="#4F4747" width="25.768" height="34.145"/>
</g>
<path fill="none" stroke="#F3F3F3" stroke-width="0.375" stroke-miterlimit="10" d="M100.715,13.445
	c-1.108-1.46-2.558-2.264-3.931-2.264c-2.443,0-4.085,2.186-4.085,5.487c0,3.263,1.527,6.064,3.663,6.719
	c0.498,0.192,1.607,0.307,2.33,0.307c1.414,0,2.023-0.615,2.023-2.074V13.445z M103.312,21.044c0,1.919,0.306,2.496,1.259,2.534
	l0.649,0.038l0.382,0.038v0.653l-7.864,0.038c-2.443,0.038-3.817-0.346-5.498-1.803c-1.562-1.384-2.405-3.188-2.405-5.299
	c0-3.799,2.826-6.831,6.34-6.831c1.45,0,2.825,0.46,4.541,1.573V3.656c0-1.957-0.382-2.418-1.947-2.418h-1.222V0.586l5.766-0.383
	V21.044z"/>
<g>
	<defs>
		<path id="SVGID_15_" d="M136.225,8.569h-0.577c-0.455-1.841-1.027-2.955-2.211-3.991c-1.413-1.267-3.398-2.035-5.271-2.035
			c-4.693,0-7.977,4.146-7.977,10.095c0,6.449,3.856,11.17,9.086,11.17c2.826,0,3.701-0.729,3.701-3.11V19.01
			c0-2.725-0.573-3.53-2.404-3.53h-0.838v-0.691h8.894v0.691h-0.382c-1.834,0-2.368,0.843-2.368,3.683v4.991
			c-1.451,0.384-4.01,0.691-6.224,0.691c-7.747,0-12.71-4.261-12.71-10.901c0-6.871,4.921-12.207,11.261-12.207
			c1.183,0,2.288,0.192,3.856,0.615c0.571,0.152,0.953,0.269,1.145,0.307c0.191,0.077,0.419,0.115,0.61,0.115
			c0.115,0.039,0.229,0.039,0.342,0.039c0.65,0,0.954-0.192,1.22-0.729h0.652L136.225,8.569z"/>
	</defs>
	<clipPath id="SVGID_16_">
		<use xlink:href="#SVGID_15_"  overflow="visible"/>
	</clipPath>

		<rect x="111.945" y="-3.263" clip-path="url(#SVGID_16_)" fill-rule="evenodd" clip-rule="evenodd" fill="#4F4747" width="31.684" height="33.108"/>
</g>
<path fill="none" stroke="#F3F3F3" stroke-width="0.375" stroke-miterlimit="10" d="M136.224,8.569h-0.577
	c-0.455-1.841-1.027-2.955-2.211-3.991c-1.413-1.268-3.398-2.035-5.271-2.035c-4.693,0-7.977,4.146-7.977,10.094
	c0,6.449,3.856,11.17,9.086,11.17c2.825,0,3.701-0.729,3.701-3.11V19.01c0-2.726-0.573-3.531-2.404-3.531h-0.838v-0.691h8.894v0.691
	h-0.382c-1.834,0-2.368,0.843-2.368,3.683v4.991c-1.451,0.384-4.01,0.691-6.223,0.691c-7.747,0-12.71-4.261-12.71-10.901
	c0-6.871,4.921-12.207,11.261-12.207c1.183,0,2.288,0.192,3.856,0.615c0.572,0.152,0.953,0.269,1.145,0.307
	c0.191,0.077,0.419,0.115,0.61,0.115c0.115,0.039,0.229,0.039,0.342,0.039c0.65,0,0.954-0.193,1.22-0.729h0.652L136.224,8.569z"/>
<g>
	<defs>
		<path id="SVGID_17_" d="M145.235,13.291c2.596-2.227,3.666-2.879,4.657-2.879c0.726,0,1.756,0.345,2.407,0.806l-1.033,2.61
			l-0.304-0.153c-1.413-0.768-2.099-1.037-2.864-1.037c-0.877,0-1.641,0.423-2.862,1.613v6.793c0,2.15,0.343,2.611,1.871,2.611
			h0.382v0.652h-7.177v-0.652h0.341c1.568,0,1.909-0.461,1.909-2.611v-7.331c0-1.881-0.38-2.265-2.135-2.265h-0.536v-0.652
			l5.345-0.422V13.291z"/>
	</defs>
	<clipPath id="SVGID_18_">
		<use xlink:href="#SVGID_17_"  overflow="visible"/>
	</clipPath>

		<rect x="134.89" y="5.374" clip-path="url(#SVGID_18_)" fill-rule="evenodd" clip-rule="evenodd" fill="#4F4747" width="22.409" height="23.933"/>
</g>
<path fill="none" stroke="#F3F3F3" stroke-width="0.375" stroke-miterlimit="10" d="M145.235,13.29
	c2.596-2.226,3.666-2.878,4.657-2.878c0.726,0,1.756,0.345,2.408,0.805l-1.033,2.61l-0.304-0.153
	c-1.413-0.767-2.099-1.037-2.864-1.037c-0.877,0-1.641,0.423-2.862,1.613v6.793c0,2.15,0.343,2.61,1.871,2.61h0.382v0.653h-7.177
	v-0.653h0.341c1.568,0,1.909-0.46,1.909-2.61v-7.332c0-1.88-0.38-2.264-2.135-2.264h-0.536v-0.653l5.345-0.421V13.29z"/>
<g>
	<defs>
		<path id="SVGID_19_" d="M156.002,17.36c0,4.106,1.755,6.562,4.621,6.562c2.822,0,4.539-2.494,4.539-6.523
			c0-4.032-1.679-6.373-4.655-6.373C157.72,11.026,156.002,13.484,156.002,17.36z M167.988,17.474c0,4.109-3.169,7.178-7.407,7.178
			c-4.237,0-7.404-3.069-7.404-7.178c0-4.029,3.168-7.176,7.254-7.176C164.665,10.298,167.988,13.445,167.988,17.474z"/>
	</defs>
	<clipPath id="SVGID_20_">
		<use xlink:href="#SVGID_19_"  overflow="visible"/>
	</clipPath>

		<rect x="148.176" y="5.298" clip-path="url(#SVGID_20_)" fill-rule="evenodd" clip-rule="evenodd" fill="#4F4747" width="24.812" height="24.354"/>
</g>
<path fill="none" stroke="#F3F3F3" stroke-width="0.375" stroke-miterlimit="10" d="M156.002,17.36c0,4.107,1.755,6.562,4.621,6.562
	c2.823,0,4.539-2.494,4.539-6.523c0-4.032-1.679-6.373-4.655-6.373C157.72,11.026,156.002,13.484,156.002,17.36z M167.988,17.474
	c0,4.108-3.169,7.178-7.407,7.178c-4.237,0-7.404-3.07-7.404-7.178c0-4.029,3.168-7.176,7.254-7.176
	C164.665,10.298,167.988,13.445,167.988,17.474z"/>
<g>
	<defs>
		<path id="SVGID_21_" d="M183.53,20.43v1.306c0,1.458,0.534,1.919,2.136,1.919h0.19v0.538l-4.923,0.382V22.08h-0.077
			c-1.334,1.728-2.901,2.572-4.773,2.572c-2.708,0-4.424-1.882-4.424-4.874v-5.873l-0.039-0.691c0-1.343-0.384-1.688-1.909-1.766
			h-0.422v-0.652l4.964-0.461v9.71c0,1.844,1.259,3.074,3.091,3.074c1.298,0,2.482-0.732,3.589-2.228V13.56
			c0-1.842-0.305-2.112-2.633-2.112v-0.652l5.23-0.461V20.43z"/>
	</defs>
	<clipPath id="SVGID_22_">
		<use xlink:href="#SVGID_21_"  overflow="visible"/>
	</clipPath>

		<rect x="164.289" y="5.335" clip-path="url(#SVGID_22_)" fill-rule="evenodd" clip-rule="evenodd" fill="#4F4747" width="26.567" height="24.317"/>
</g>
<path fill="none" stroke="#F3F3F3" stroke-width="0.375" stroke-miterlimit="10" d="M183.53,20.43v1.306
	c0,1.458,0.534,1.919,2.136,1.919h0.19v0.538l-4.923,0.382V22.08h-0.077c-1.335,1.728-2.901,2.572-4.773,2.572
	c-2.708,0-4.424-1.882-4.424-4.875v-5.872l-0.039-0.691c0-1.344-0.384-1.689-1.909-1.766h-0.422v-0.653l4.964-0.46v9.71
	c0,1.843,1.259,3.074,3.091,3.074c1.298,0,2.482-0.732,3.589-2.228v-7.33c0-1.842-0.305-2.112-2.633-2.112v-0.653l5.23-0.46V20.43z"
	/>
<g>
	<defs>
		<path id="SVGID_23_" d="M191.891,22.157c0.993,1.037,2.445,1.689,3.742,1.689c2.406,0,4.314-2.57,4.314-5.95
			c0-3.683-1.833-6.293-4.39-6.293c-1.376,0-2.406,0.575-3.666,2.035V22.157z M191.891,12.638c1.756-1.65,2.978-2.226,4.698-2.226
			c3.473,0,6.107,2.993,6.107,6.987c0,4.145-2.863,7.253-6.72,7.253c-1.451,0-2.556-0.422-4.085-1.533v8.596
			c0,2.111,0.347,2.611,1.909,2.611h0.381v0.652h-7.137v-0.652h0.382c1.527,0,1.872-0.5,1.872-2.611V13.522
			c0-1.69-0.345-2.074-1.948-2.074h-0.421v-0.652l4.962-0.422V12.638z"/>
	</defs>
	<clipPath id="SVGID_24_">
		<use xlink:href="#SVGID_23_"  overflow="visible"/>
	</clipPath>

		<rect x="181.929" y="5.374" clip-path="url(#SVGID_24_)" fill-rule="evenodd" clip-rule="evenodd" fill="#4F4747" width="25.767" height="34.604"/>
</g>
<path fill="none" stroke="#F3F3F3" stroke-width="0.375" stroke-miterlimit="10" d="M191.891,22.157
	c0.993,1.037,2.445,1.689,3.742,1.689c2.406,0,4.314-2.57,4.314-5.95c0-3.683-1.833-6.294-4.39-6.294
	c-1.376,0-2.406,0.576-3.666,2.036V22.157z M191.891,12.637c1.756-1.65,2.978-2.225,4.698-2.225c3.473,0,6.107,2.992,6.107,6.986
	c0,4.145-2.862,7.253-6.72,7.253c-1.451,0-2.556-0.422-4.085-1.533v8.596c0,2.111,0.347,2.611,1.909,2.611h0.381v0.652h-7.137
	v-0.652h0.382c1.527,0,1.872-0.5,1.872-2.611V13.522c0-1.69-0.345-2.074-1.948-2.074h-0.421v-0.653l4.962-0.421V12.637z"/>
<g>
	<defs>
		<path id="SVGID_25_" d="M51.966,60.896H51.77c-0.172-0.74-0.401-0.926-1.188-0.926h-2.023v3.107h1.704
			c0.773,0,0.869-0.063,1.007-0.615c0.01-0.013,0.01-0.038,0.022-0.075h0.21V64.1h-0.21c-0.16-0.604-0.257-0.678-1.019-0.678h-1.715
			v2.575c0,0.482,0.073,0.52,0.736,0.52h1.042c1.053,0,1.335-0.173,1.68-1.062h0.207l-0.317,1.322h-5.064v-0.212h0.1
			c0.501,0,0.696-0.32,0.696-1.122v-4.399c0-0.802-0.195-1.122-0.696-1.122h-0.1v-0.21h5.064L51.966,60.896"/>
	</defs>
	<clipPath id="SVGID_26_">
		<use xlink:href="#SVGID_25_"  overflow="visible"/>
	</clipPath>

		<rect x="41.842" y="54.712" clip-path="url(#SVGID_26_)" fill-rule="evenodd" clip-rule="evenodd" fill="#4F4747" width="15.381" height="17.065"/>
</g>
<g>
	<defs>
		<path id="SVGID_27_" d="M60.717,61.266H60.51l-0.012-0.1c-0.137-0.554-0.283-0.838-0.59-1.073
			c-0.268-0.209-0.602-0.331-0.955-0.331c-0.736,0-1.263,0.48-1.263,1.121c0,0.345,0.171,0.726,0.453,0.999
			c0.17,0.16,0.369,0.306,0.588,0.455c0.159,0.099,0.43,0.271,0.811,0.506c0.563,0.356,0.844,0.579,1.09,0.874
			c0.308,0.37,0.468,0.777,0.468,1.222c0,1.108-0.895,2.009-2,2.009c-0.381,0-0.587-0.05-1.165-0.234
			c-0.281-0.1-0.391-0.137-0.442-0.137c-0.12,0-0.207,0.086-0.267,0.272h-0.208v-1.91h0.208l0.012,0.135
			c0.097,0.665,0.232,0.923,0.638,1.233c0.293,0.247,0.662,0.367,1.042,0.367c0.845,0,1.41-0.516,1.41-1.281
			c0-0.429-0.159-0.726-0.587-1.071c-0.257-0.222-0.528-0.419-0.823-0.605c-0.452-0.295-0.749-0.479-0.908-0.591
			c-0.173-0.124-0.343-0.283-0.502-0.47c-0.307-0.379-0.454-0.8-0.454-1.292c0-1.086,0.782-1.825,1.912-1.825
			c0.356,0,0.566,0.038,0.981,0.173c0.244,0.087,0.33,0.099,0.405,0.099c0.096,0,0.134-0.036,0.17-0.149
			c0-0.012,0.013-0.023,0.013-0.05h0.184V61.266"/>
	</defs>
	<clipPath id="SVGID_28_">
		<use xlink:href="#SVGID_27_"  overflow="visible"/>
	</clipPath>

		<rect x="52.016" y="54.539" clip-path="url(#SVGID_28_)" fill-rule="evenodd" clip-rule="evenodd" fill="#4F4747" width="14.083" height="17.409"/>
</g>
<g>
	<defs>
		<path id="SVGID_29_" d="M71.762,61.092h-0.171l-0.024-0.097c-0.209-0.693-0.553-0.914-1.459-0.914h-1.104v5.4
			c0,0.775,0.195,1.084,0.687,1.084H69.8v0.212h-2.488v-0.212h0.086c0.516,0,0.711-0.32,0.711-1.122v-5.362h-1.019
			c-0.98,0-1.313,0.221-1.459,0.975h-0.209l0.051-1.638h0.206c0.211,0.221,0.516,0.294,1.228,0.294h3.764
			c0.43-0.014,0.574-0.062,0.832-0.26h0.21L71.762,61.092"/>
	</defs>
	<clipPath id="SVGID_30_">
		<use xlink:href="#SVGID_29_"  overflow="visible"/>
	</clipPath>

		<rect x="60.423" y="54.418" clip-path="url(#SVGID_30_)" fill-rule="evenodd" clip-rule="evenodd" fill="#4F4747" width="16.339" height="17.359"/>
</g>
<g>
	<defs>
		<path id="SVGID_31_" d="M79.042,60.489h-0.024l-0.982,2.994h1.987L79.042,60.489z M81.641,65.481
			c0.283,0.85,0.429,1.036,0.809,1.059l0.185,0.014l0.098,0.011v0.212h-2.464v-0.212c0.393,0,0.599-0.147,0.599-0.419
			c0-0.111-0.024-0.185-0.134-0.519l-0.563-1.711h-2.268l-0.478,1.417c-0.123,0.381-0.185,0.628-0.185,0.777
			c0,0.294,0.161,0.43,0.564,0.455v0.212H75.99v-0.212c0.49-0.061,0.773-0.32,0.967-0.913l0.061-0.209l1.95-5.804h0.737
			L81.641,65.481z"/>
	</defs>
	<clipPath id="SVGID_32_">
		<use xlink:href="#SVGID_31_"  overflow="visible"/>
	</clipPath>

		<rect x="70.99" y="54.639" clip-path="url(#SVGID_32_)" fill-rule="evenodd" clip-rule="evenodd" fill="#4F4747" width="16.743" height="17.138"/>
</g>
<g>
	<defs>
		<path id="SVGID_33_" d="M88.837,65.333c0,0.947,0.159,1.184,0.796,1.184h0.358c0.585,0,0.917-0.137,1.199-0.495
			c0.209-0.27,0.331-0.652,0.331-1.058c0-1.024-0.784-1.676-2.022-1.676h-0.661V65.333z M89.56,62.929
			c1.03,0,1.654-0.531,1.654-1.418c0-0.691-0.355-1.233-0.954-1.43c-0.26-0.097-0.431-0.111-0.897-0.111h-0.526v2.959H89.56z
			 M87.106,66.565h0.099c0.503,0,0.698-0.32,0.698-1.122v-4.399c0-0.802-0.195-1.122-0.698-1.122h-0.099v-0.21h2.501
			c0.737,0,1.299,0.112,1.692,0.333c0.577,0.321,0.894,0.813,0.894,1.38c0,0.48-0.195,0.887-0.551,1.183
			c-0.245,0.198-0.404,0.285-0.868,0.432v0.024c1.09,0.235,1.824,1.036,1.824,1.985c0,0.703-0.466,1.307-1.188,1.565
			c-0.332,0.111-0.713,0.163-1.25,0.163h-3.055V66.565z"/>
	</defs>
	<clipPath id="SVGID_34_">
		<use xlink:href="#SVGID_33_"  overflow="visible"/>
	</clipPath>

		<rect x="82.106" y="54.712" clip-path="url(#SVGID_34_)" fill-rule="evenodd" clip-rule="evenodd" fill="#4F4747" width="15.493" height="17.065"/>
</g>
<g>
	<defs>
		<path id="SVGID_35_" d="M102.22,66.777h-5.087v-0.212h0.073c0.553,0,0.724-0.333,0.724-1.342v-3.957l0.012-0.321
			c0-0.715-0.207-1.023-0.697-1.023h-0.112v-0.21h2.512v0.21h-0.073c-0.551,0-0.721,0.32-0.721,1.344v4.425
			c0,0.589,0.135,0.727,0.686,0.75l0.405,0.013h1.114c0.859,0,1.066-0.183,1.386-1.209h0.222L102.22,66.777"/>
	</defs>
	<clipPath id="SVGID_36_">
		<use xlink:href="#SVGID_35_"  overflow="visible"/>
	</clipPath>

		<rect x="92.133" y="54.712" clip-path="url(#SVGID_36_)" fill-rule="evenodd" clip-rule="evenodd" fill="#4F4747" width="15.531" height="17.065"/>
</g>
<g>
	<defs>
		<path id="SVGID_37_" d="M109.268,66.777h-2.527v-0.212h0.1c0.504,0,0.712-0.32,0.712-1.122v-4.399
			c0-0.802-0.208-1.122-0.712-1.122h-0.1v-0.21h2.527v0.21h-0.084c-0.518,0-0.712,0.32-0.712,1.122v4.399
			c0,0.802,0.194,1.122,0.712,1.122h0.084V66.777"/>
	</defs>
	<clipPath id="SVGID_38_">
		<use xlink:href="#SVGID_37_"  overflow="visible"/>
	</clipPath>

		<rect x="101.741" y="54.712" clip-path="url(#SVGID_38_)" fill-rule="evenodd" clip-rule="evenodd" fill="#4F4747" width="12.527" height="17.065"/>
</g>
<g>
	<defs>
		<path id="SVGID_39_" d="M117.64,61.266h-0.208l-0.013-0.1c-0.134-0.554-0.281-0.838-0.588-1.073
			c-0.268-0.209-0.599-0.331-0.956-0.331c-0.734,0-1.263,0.48-1.263,1.121c0,0.345,0.174,0.726,0.457,0.999
			c0.17,0.16,0.365,0.306,0.587,0.455c0.159,0.099,0.427,0.271,0.81,0.506c0.562,0.356,0.845,0.579,1.089,0.874
			c0.308,0.37,0.467,0.777,0.467,1.222c0,1.108-0.895,2.009-1.999,2.009c-0.379,0-0.588-0.05-1.164-0.234
			c-0.282-0.1-0.393-0.137-0.442-0.137c-0.122,0-0.207,0.086-0.268,0.272h-0.209v-1.91h0.209l0.013,0.135
			c0.097,0.665,0.231,0.923,0.635,1.233c0.296,0.247,0.665,0.367,1.043,0.367c0.847,0,1.411-0.516,1.411-1.281
			c0-0.429-0.159-0.726-0.589-1.071c-0.257-0.222-0.528-0.419-0.822-0.605c-0.453-0.295-0.747-0.479-0.908-0.591
			c-0.168-0.124-0.341-0.283-0.501-0.47c-0.306-0.379-0.453-0.8-0.453-1.292c0-1.086,0.785-1.825,1.911-1.825
			c0.357,0,0.564,0.038,0.983,0.173c0.242,0.087,0.33,0.099,0.402,0.099c0.097,0,0.135-0.036,0.172-0.149
			c0-0.012,0.011-0.023,0.011-0.05h0.185V61.266"/>
	</defs>
	<clipPath id="SVGID_40_">
		<use xlink:href="#SVGID_39_"  overflow="visible"/>
	</clipPath>

		<rect x="108.938" y="54.539" clip-path="url(#SVGID_40_)" fill-rule="evenodd" clip-rule="evenodd" fill="#4F4747" width="14.082" height="17.409"/>
</g>
<g>
	<defs>
		<path id="SVGID_41_" d="M124.246,63.397v2.046c0,0.802,0.21,1.122,0.711,1.122h0.086v0.212h-2.537v-0.212h0.098
			c0.504,0,0.701-0.32,0.701-1.122v-4.399c0-0.802-0.197-1.122-0.701-1.122h-0.098v-0.21h2.537v0.21h-0.086
			c-0.501,0-0.711,0.32-0.711,1.122v1.996h3.825v-1.996c0-0.802-0.196-1.122-0.708-1.122h-0.088v-0.21h2.513v0.21h-0.085
			c-0.502,0-0.71,0.32-0.71,1.122v4.399c0,0.802,0.208,1.122,0.71,1.122h0.085v0.212h-2.513v-0.212h0.088
			c0.511,0,0.708-0.32,0.708-1.122v-2.046H124.246"/>
	</defs>
	<clipPath id="SVGID_42_">
		<use xlink:href="#SVGID_41_"  overflow="visible"/>
	</clipPath>

		<rect x="117.506" y="54.712" clip-path="url(#SVGID_42_)" fill-rule="evenodd" clip-rule="evenodd" fill="#4F4747" width="17.282" height="17.065"/>
</g>
<g>
	<defs>
		<path id="SVGID_43_" d="M139.46,60.896h-0.198c-0.173-0.74-0.404-0.926-1.19-0.926h-2.023v3.107h1.706
			c0.772,0,0.871-0.063,1.003-0.615c0.014-0.013,0.014-0.038,0.025-0.075h0.21V64.1h-0.21c-0.158-0.604-0.257-0.678-1.017-0.678
			h-1.717v2.575c0,0.482,0.073,0.52,0.738,0.52h1.04c1.055,0,1.337-0.173,1.68-1.062h0.208l-0.319,1.322h-5.062v-0.212h0.097
			c0.503,0,0.699-0.32,0.699-1.122v-4.399c0-0.802-0.196-1.122-0.699-1.122h-0.097v-0.21h5.062L139.46,60.896"/>
	</defs>
	<clipPath id="SVGID_44_">
		<use xlink:href="#SVGID_43_"  overflow="visible"/>
	</clipPath>

		<rect x="129.335" y="54.712" clip-path="url(#SVGID_44_)" fill-rule="evenodd" clip-rule="evenodd" fill="#4F4747" width="15.381" height="17.065"/>
</g>
<g>
	<defs>
		<path id="SVGID_45_" d="M145.965,65.195c0,1.024,0.197,1.309,0.909,1.309h0.54c1.066,0,1.729-0.259,2.257-0.9
			c0.463-0.568,0.697-1.294,0.697-2.244c0-1.307-0.502-2.39-1.351-2.958c-0.486-0.321-1.064-0.455-2.006-0.455h-1.045V65.195z
			 M144.226,66.565h0.085c0.505,0,0.712-0.32,0.712-1.122v-4.399c0-0.802-0.208-1.122-0.712-1.122h-0.085v-0.21h2.832
			c0.894,0,1.189,0.024,1.644,0.136c0.28,0.074,0.565,0.172,0.835,0.308c1.187,0.616,1.911,1.823,1.911,3.204
			c0,1.48-0.773,2.626-2.108,3.119c-0.553,0.21-1.116,0.298-1.899,0.298h-3.214V66.565z"/>
	</defs>
	<clipPath id="SVGID_46_">
		<use xlink:href="#SVGID_45_"  overflow="visible"/>
	</clipPath>

		<rect x="139.226" y="54.712" clip-path="url(#SVGID_46_)" fill-rule="evenodd" clip-rule="evenodd" fill="#4F4747" width="17.222" height="17.065"/>
</g>
<g>
	<defs>
		<path id="SVGID_47_" d="M90.009,80.987c0,0.813,0,0.987,0.768,0.987v0.231h-2.399v-0.231c0.73-0.014,0.755-0.202,0.755-0.96
			v-2.263c0-0.732,0-0.935-0.755-0.96v-0.23h2.399v0.23c-0.768,0.039-0.768,0.188-0.768,0.96V80.987"/>
	</defs>
	<clipPath id="SVGID_48_">
		<use xlink:href="#SVGID_47_"  overflow="visible"/>
	</clipPath>

		<rect x="83.378" y="72.561" clip-path="url(#SVGID_48_)" fill-rule="evenodd" clip-rule="evenodd" fill="#4F4747" width="12.399" height="14.644"/>
</g>
<g>
	<defs>
		<path id="SVGID_49_" d="M96.11,80.77c0.715,0,1.186-0.651,1.336-0.853c-0.15-2.045-1.348-2.045-1.508-2.045
			c-0.135,0-1.025,0.081-1.025,1.313C94.911,80.216,95.491,80.77,96.11,80.77z M93.713,84.211c0.809-0.054,1.629-0.258,2.33-0.814
			c1.118-0.879,1.39-2.519,1.402-3.007c-0.432,0.516-0.971,0.854-1.617,0.854c-0.902,0-1.832-0.611-1.832-1.733
			c0-0.95,0.754-1.923,2.073-1.923c1.523,0,2.359,1.327,2.359,2.613c0,2.072-2.076,4.361-4.715,4.225V84.211z"/>
	</defs>
	<clipPath id="SVGID_50_">
		<use xlink:href="#SVGID_49_"  overflow="visible"/>
	</clipPath>

		<rect x="88.713" y="72.588" clip-path="url(#SVGID_50_)" fill-rule="evenodd" clip-rule="evenodd" fill="#4F4747" width="14.715" height="16.844"/>
</g>
<g>
	<defs>
		<path id="SVGID_51_" d="M104.097,78.588c0.313-0.204,0.742-0.501,0.742-1.219c0-0.839-0.54-1.436-1.266-1.436
			c-0.647,0-0.983,0.502-0.983,0.92C102.59,77.654,103.547,78.276,104.097,78.588z M103.328,79.279
			c-0.912,0.514-0.912,1.353-0.912,1.476c0,0.705,0.522,1.516,1.385,1.516c0.458,0,1.131-0.285,1.131-1.055
			C104.932,80.429,104.314,79.956,103.328,79.279z M103.76,75.635c0.892,0,1.711,0.597,1.711,1.545c0,0.596-0.267,1.041-1.131,1.596
			c0.553,0.435,1.282,0.99,1.282,1.913c0,0.677-0.488,1.88-2.036,1.88c-1.199,0-1.858-0.797-1.858-1.638
			c0-0.529,0.215-1.152,1.348-1.841c-0.336-0.258-1.091-0.855-1.091-1.816C101.983,76.489,102.642,75.635,103.76,75.635z"/>
	</defs>
	<clipPath id="SVGID_52_">
		<use xlink:href="#SVGID_51_"  overflow="visible"/>
	</clipPath>

		<rect x="96.727" y="70.635" clip-path="url(#SVGID_52_)" fill-rule="evenodd" clip-rule="evenodd" fill="#4F4747" width="13.895" height="16.934"/>
</g>
<g>
	<defs>
		<path id="SVGID_53_" d="M108.137,83.926c0.621,0.474,1.161,0.474,1.294,0.474c0.39,0,1.335-0.271,1.335-1.477
			c0-0.61-0.35-1.8-1.549-1.8c-0.202,0-0.323,0.026-0.444,0.053l-0.04-0.244c0.903-0.255,0.943-0.269,1.213-0.473
			c0.418-0.312,0.644-0.786,0.644-1.26c0-0.664-0.458-1.26-1.077-1.26c-0.538,0-0.754,0.368-0.863,0.556l-0.202-0.122
			c0.148-0.313,0.485-0.812,1.348-0.812c0.876,0,1.657,0.61,1.657,1.544c0,1.084-0.863,1.488-1.281,1.694
			c1.172,0.27,1.577,1.175,1.577,1.826c0,0.893-0.7,2.086-2.169,2.086c-0.782,0-1.345-0.351-1.589-0.596L108.137,83.926"/>
	</defs>
	<clipPath id="SVGID_54_">
		<use xlink:href="#SVGID_53_"  overflow="visible"/>
	</clipPath>

		<rect x="102.989" y="72.561" clip-path="url(#SVGID_54_)" fill-rule="evenodd" clip-rule="evenodd" fill="#4F4747" width="13.759" height="17.15"/>
</g>
</svg>
