<?xml version="1.0" encoding="utf-8"?>
<!-- Generator: Adobe Illustrator 17.0.2, SVG Export Plug-In . SVG Version: 6.00 Build 0)  -->
<!DOCTYPE svg PUBLIC "-//W3C//DTD SVG 1.1//EN" "http://www.w3.org/Graphics/SVG/1.1/DTD/svg11.dtd">
<svg version="1.1" id="Layer_1" xmlns="http://www.w3.org/2000/svg" xmlns:xlink="http://www.w3.org/1999/xlink" x="0px" y="0px"
	 width="201.462px" height="83.662px" viewBox="0 0 201.462 83.662" enable-background="new 0 0 201.462 83.662"
	 xml:space="preserve">
<g>
	<g>
		<path fill="#4E4646" stroke="#1B1A19" stroke-width="0.375" stroke-miterlimit="10" d="M11.636,7.063h-0.646L10.954,6.76
			c-0.418-1.706-0.873-2.577-1.819-3.297c-0.833-0.645-1.86-1.025-2.958-1.025c-2.274,0-3.903,1.479-3.903,3.45
			c0,1.062,0.529,2.237,1.401,3.07c0.531,0.493,1.137,0.947,1.817,1.403c0.494,0.302,1.328,0.833,2.503,1.552
			c1.746,1.1,2.617,1.782,3.372,2.693c0.948,1.137,1.442,2.388,1.442,3.753c0,3.41-2.768,6.178-6.179,6.178
			c-1.175,0-1.819-0.152-3.6-0.72c-0.871-0.304-1.214-0.417-1.367-0.417c-0.378,0-0.642,0.264-0.832,0.833H0.188V18.36h0.645
			l0.039,0.417c0.301,2.048,0.719,2.842,1.969,3.791c0.911,0.758,2.05,1.137,3.224,1.137c2.614,0,4.358-1.592,4.358-3.942
			c0-1.326-0.493-2.237-1.82-3.298c-0.796-0.681-1.627-1.287-2.538-1.856c-1.403-0.911-2.314-1.479-2.806-1.821
			c-0.532-0.379-1.063-0.873-1.555-1.44c-0.945-1.175-1.402-2.465-1.402-3.98c0-3.336,2.425-5.611,5.912-5.611
			c1.1,0,1.744,0.113,3.032,0.53c0.759,0.265,1.025,0.305,1.252,0.305c0.304,0,0.418-0.115,0.531-0.456
			c0-0.037,0.04-0.075,0.04-0.151h0.568V7.063z"/>
		<path fill="#4E4646" stroke="#1B1A19" stroke-width="0.375" stroke-miterlimit="10" d="M28.431,20.179v1.289
			c0,1.44,0.53,1.895,2.121,1.895h0.19v0.531l-4.889,0.378v-2.464h-0.076c-1.328,1.706-2.881,2.54-4.737,2.54
			c-2.695,0-4.399-1.859-4.399-4.814V18.17v-4.435l-0.037-0.682c0-1.327-0.38-1.668-1.895-1.744h-0.418v-0.645l4.928-0.454v8.717
			v0.872c0,1.82,1.25,3.035,3.068,3.035c1.29,0,2.466-0.723,3.566-2.201V14v-0.606c0-1.819-0.303-2.085-2.616-2.085v-0.645
			l5.194-0.454V20.179z"/>
		<path fill="#4E4646" stroke="#1B1A19" stroke-width="0.375" stroke-miterlimit="10" d="M36.963,12.902
			c1.553-1.781,3.108-2.616,4.813-2.616c2.806,0,4.586,1.895,4.586,5.004v5.495c0,2.123,0.342,2.578,1.858,2.578h0.379v0.644h-7.164
			v-0.644h0.379c1.553,0,1.895-0.455,1.895-2.578v-5.421c0-2.69-0.871-3.789-2.955-3.789c-1.329,0-2.503,0.758-3.792,2.577v6.633
			c0,2.123,0.342,2.578,1.856,2.578h0.379v0.644h-7.048v-0.644h0.377c1.517,0,1.896-0.455,1.896-2.578v-6.254V13.28
			c0-1.516-0.418-1.933-1.934-1.972H32.11v-0.645l4.853-0.416V12.902z"/>
		<path fill="#4E4646" stroke="#1B1A19" stroke-width="0.375" stroke-miterlimit="10" d="M54.705,20.785
			c0,2.16,0.341,2.578,1.856,2.578h0.567v0.644h-7.464v-0.644h0.644c1.593,0,1.858-0.418,1.858-2.654v-0.986V3.841
			c0-2.161-0.265-2.539-1.744-2.539h-0.987V0.619l5.27-0.416V20.785z"/>
		<path fill="#4E4646" stroke="#1B1A19" stroke-width="0.375" stroke-miterlimit="10" d="M71.006,21.619
			c-0.038,1.593-1.137,2.73-2.652,2.73c-1.102,0-1.78-0.53-2.277-1.819c-1.325,1.365-2.158,1.819-3.561,1.819
			c-2.123,0-3.866-1.592-3.866-3.524c0-1.934,1.213-2.995,4.474-3.906c1.969-0.568,2.387-0.682,2.953-1.022v-0.987
			c0-1.933-1.211-3.296-2.995-3.296c-1.552,0-2.688,0.87-3.448,2.614l-0.113,0.304l-0.645-0.191c0.567-2.464,2.54-4.055,4.967-4.055
			c1.781,0,3.409,0.835,4.206,2.161c0.495,0.834,0.646,1.516,0.646,3.45v5.002c0,1.554,0.149,2.009,0.72,2.009
			c0.454,0,0.756-0.418,0.948-1.289H71.006z M66.076,16.73c-0.565,0.265-0.719,0.341-1.553,0.607
			c-2.54,0.833-3.259,1.515-3.259,3.182c0,1.404,0.948,2.541,2.085,2.541c1.061,0,2.047-0.607,2.728-1.705V16.73z"/>
		<path fill="#4E4646" stroke="#1B1A19" stroke-width="0.375" stroke-miterlimit="10" d="M76.694,12.902
			c1.556-1.781,3.107-2.616,4.816-2.616c2.804,0,4.583,1.895,4.583,5.004v5.495c0,2.123,0.342,2.578,1.861,2.578h0.377v0.644h-7.164
			v-0.644h0.379c1.555,0,1.896-0.455,1.896-2.578v-5.421c0-2.69-0.873-3.789-2.958-3.789c-1.327,0-2.502,0.758-3.791,2.577v6.633
			c0,2.123,0.341,2.578,1.859,2.578h0.379v0.644H71.88v-0.644h0.38c1.517,0,1.894-0.455,1.894-2.578v-6.254V13.28
			c0-1.516-0.414-1.933-1.932-1.972h-0.38v-0.645l4.852-0.416V12.902z"/>
		<path fill="#4E4646" stroke="#1B1A19" stroke-width="0.375" stroke-miterlimit="10" d="M102.588,20.785
			c0,1.895,0.304,2.465,1.25,2.502l0.645,0.038l0.38,0.038v0.644l-7.809,0.038c-2.426,0.037-3.791-0.342-5.46-1.781
			c-1.551-1.366-2.388-3.148-2.388-5.232c0-3.752,2.806-6.747,6.295-6.747c1.44,0,2.805,0.455,4.509,1.553V4.447V3.613
			c0-1.933-0.379-2.387-1.933-2.387h-1.213V0.581l5.725-0.378V20.785z M100.009,13.28c-1.1-1.442-2.54-2.237-3.903-2.237
			c-2.425,0-4.057,2.16-4.057,5.42c0,3.223,1.517,5.989,3.638,6.635c0.494,0.189,1.595,0.304,2.313,0.304
			c1.404,0,2.008-0.607,2.008-2.048v-0.721V13.28z"/>
		<path fill="#4E4646" stroke="#1B1A19" stroke-width="0.375" stroke-miterlimit="10" d="M135.269,8.465h-0.573
			c-0.451-1.818-1.021-2.918-2.196-3.942c-1.403-1.251-3.374-2.009-5.234-2.009c-4.66,0-7.921,4.094-7.921,9.97
			c0,6.369,3.829,11.031,9.022,11.031c2.806,0,3.676-0.72,3.676-3.071v-1.667c0-2.692-0.568-3.487-2.387-3.487h-0.831v-0.682h8.831
			v0.682h-0.379c-1.821,0-2.351,0.833-2.351,3.637v4.93c-1.441,0.378-3.983,0.681-6.18,0.681c-7.693,0-12.621-4.208-12.621-10.765
			c0-6.786,4.887-12.055,11.182-12.055c1.174,0,2.272,0.189,3.829,0.606c0.567,0.151,0.946,0.266,1.137,0.303
			c0.19,0.077,0.417,0.114,0.607,0.114c0.113,0.039,0.227,0.039,0.339,0.039c0.646,0,0.948-0.19,1.211-0.72h0.648L135.269,8.465z"/>
		<path fill="#4E4646" stroke="#1B1A19" stroke-width="0.375" stroke-miterlimit="10" d="M144.216,13.128
			c2.579-2.198,3.641-2.843,4.624-2.843c0.721,0,1.745,0.341,2.391,0.795l-1.026,2.578l-0.302-0.152
			c-1.403-0.757-2.085-1.024-2.844-1.024c-0.87,0-1.629,0.418-2.843,1.593v6.708c0,2.123,0.341,2.578,1.859,2.578h0.379v0.644
			h-7.126v-0.644h0.338c1.557,0,1.896-0.455,1.896-2.578V14.57v-1.024c0-1.858-0.378-2.237-2.121-2.237h-0.533v-0.645l5.307-0.416
			V13.128z"/>
		<path fill="#4E4646" stroke="#1B1A19" stroke-width="0.375" stroke-miterlimit="10" d="M166.81,17.259
			c0,4.058-3.146,7.09-7.354,7.09c-4.207,0-7.353-3.032-7.353-7.09c0-3.979,3.145-7.087,7.203-7.087
			C163.51,10.172,166.81,13.28,166.81,17.259z M154.908,17.147c0,4.056,1.744,6.481,4.588,6.481c2.803,0,4.508-2.463,4.508-6.443
			c0-3.982-1.667-6.294-4.622-6.294C156.615,10.892,154.908,13.319,154.908,17.147z"/>
		<path fill="#4E4646" stroke="#1B1A19" stroke-width="0.375" stroke-miterlimit="10" d="M182.243,20.179v1.289
			c0,1.44,0.53,1.895,2.121,1.895h0.189v0.531l-4.889,0.378v-2.464h-0.076c-1.325,1.706-2.881,2.54-4.74,2.54
			c-2.689,0-4.393-1.859-4.393-4.814V18.17v-4.435l-0.039-0.682c0-1.327-0.382-1.668-1.895-1.744h-0.418v-0.645l4.928-0.454v8.717
			v0.872c0,1.82,1.25,3.035,3.069,3.035c1.289,0,2.466-0.723,3.565-2.201V14v-0.606c0-1.819-0.303-2.085-2.615-2.085v-0.645
			l5.193-0.454V20.179z"/>
		<path fill="#4E4646" stroke="#1B1A19" stroke-width="0.375" stroke-miterlimit="10" d="M190.545,12.484
			c1.744-1.629,2.957-2.198,4.665-2.198c3.448,0,6.063,2.955,6.063,6.9c0,4.093-2.842,7.164-6.673,7.164
			c-1.44,0-2.538-0.417-4.056-1.515v8.49c0,2.084,0.344,2.578,1.895,2.578h0.378v0.644h-7.087v-0.644h0.379
			c1.516,0,1.859-0.494,1.859-2.578v-16.87v-1.098c0-1.669-0.342-2.048-1.934-2.048h-0.418v-0.645l4.928-0.416V12.484z
			 M190.545,21.884c0.986,1.024,2.427,1.668,3.715,1.668c2.388,0,4.284-2.539,4.284-5.876c0-3.638-1.82-6.216-4.359-6.216
			c-1.367,0-2.389,0.568-3.64,2.01V21.884z"/>
	</g>
	<g>
		<g>
			<path fill="#4E4646" d="M51.602,60.142h-0.194c-0.171-0.731-0.399-0.915-1.18-0.915h-2.009v3.068h1.692
				c0.768,0,0.863-0.061,1-0.607c0.01-0.012,0.01-0.037,0.023-0.075h0.208v1.692h-0.208c-0.159-0.596-0.255-0.67-1.011-0.67h-1.703
				v2.362v0.181c0,0.475,0.073,0.513,0.731,0.513h1.034c1.045,0,1.326-0.171,1.668-1.048h0.205l-0.315,1.305h-5.028v-0.209h0.099
				c0.498,0,0.692-0.316,0.692-1.107v-0.218v-3.908v-0.219c0-0.793-0.194-1.108-0.692-1.108h-0.099v-0.207h5.028L51.602,60.142z"/>
			<path fill="#4E4646" d="M60.292,60.507h-0.206l-0.011-0.098c-0.136-0.548-0.281-0.828-0.585-1.059
				c-0.267-0.207-0.598-0.328-0.949-0.328c-0.73,0-1.254,0.474-1.254,1.107c0,0.341,0.17,0.717,0.45,0.986
				c0.169,0.158,0.367,0.303,0.584,0.45c0.157,0.098,0.426,0.268,0.805,0.5c0.558,0.352,0.837,0.572,1.082,0.863
				c0.305,0.366,0.465,0.767,0.465,1.207c0,1.093-0.889,1.984-1.986,1.984c-0.379,0-0.583-0.049-1.157-0.23
				c-0.279-0.099-0.388-0.135-0.439-0.135c-0.119,0-0.205,0.084-0.266,0.268h-0.206v-1.886h0.206l0.012,0.133
				c0.096,0.657,0.23,0.912,0.632,1.217c0.291,0.244,0.658,0.363,1.035,0.363c0.839,0,1.401-0.509,1.401-1.265
				c0-0.424-0.158-0.717-0.583-1.058c-0.255-0.219-0.524-0.414-0.817-0.597c-0.449-0.292-0.744-0.474-0.901-0.584
				c-0.172-0.121-0.341-0.279-0.499-0.464c-0.305-0.374-0.451-0.79-0.451-1.276c0-1.072,0.778-1.802,1.898-1.802
				c0.353,0,0.562,0.037,0.975,0.171c0.242,0.086,0.328,0.098,0.402,0.098c0.095,0,0.133-0.036,0.169-0.147
				c0-0.012,0.012-0.024,0.012-0.049h0.183V60.507z"/>
			<path fill="#4E4646" d="M71.259,60.336h-0.17l-0.025-0.096c-0.207-0.684-0.549-0.902-1.449-0.902H68.52v5.077v0.255
				c0,0.766,0.194,1.071,0.682,1.071h0.108v0.209H66.84v-0.209h0.087c0.512,0,0.706-0.316,0.706-1.107v-0.218v-5.077h-1.011
				c-0.973,0-1.304,0.218-1.449,0.962h-0.207l0.05-1.618h0.205c0.209,0.218,0.513,0.291,1.219,0.291h3.459h0.279
				c0.427-0.014,0.571-0.061,0.827-0.257h0.208L71.259,60.336z"/>
			<path fill="#4E4646" d="M81.069,64.67c0.281,0.84,0.426,1.023,0.803,1.047l0.184,0.013l0.097,0.011v0.209h-2.447v-0.209
				c0.39,0,0.595-0.145,0.595-0.413c0-0.111-0.024-0.183-0.133-0.512l-0.559-1.69h-2.253l-0.475,1.4
				c-0.123,0.377-0.183,0.62-0.183,0.767c0,0.291,0.159,0.426,0.56,0.449v0.209h-1.8v-0.209c0.486-0.06,0.767-0.316,0.961-0.901
				l0.06-0.206l1.936-5.733h0.731L81.069,64.67z M78.488,59.74h-0.025l-0.975,2.957h1.973L78.488,59.74z"/>
			<path fill="#4E4646" d="M86.496,65.741h0.099c0.499,0,0.693-0.316,0.693-1.107v-0.218v-3.908v-0.219
				c0-0.793-0.194-1.108-0.693-1.108h-0.099v-0.207h2.483c0.731,0,1.29,0.11,1.681,0.329c0.573,0.316,0.888,0.803,0.888,1.363
				c0,0.474-0.194,0.877-0.548,1.168c-0.243,0.196-0.402,0.281-0.861,0.427v0.024c1.082,0.231,1.811,1.023,1.811,1.96
				c0,0.695-0.463,1.291-1.18,1.547c-0.329,0.108-0.707,0.16-1.24,0.16h-3.034V65.741z M88.932,62.15
				c1.023,0,1.643-0.525,1.643-1.401c0-0.683-0.352-1.218-0.948-1.412c-0.258-0.097-0.428-0.11-0.891-0.11h-0.522v2.923H88.932z
				 M88.214,64.525c0,0.935,0.158,1.168,0.791,1.168h0.354c0.581,0,0.91-0.135,1.19-0.488c0.207-0.267,0.329-0.644,0.329-1.046
				c0-1.011-0.779-1.655-2.009-1.655h-0.656V64.525z"/>
			<path fill="#4E4646" d="M101.504,65.95h-5.051v-0.209h0.073c0.548,0,0.718-0.328,0.718-1.325v-3.908l0.012-0.316
				c0-0.707-0.205-1.011-0.693-1.011h-0.11v-0.207h2.494v0.207h-0.073c-0.548,0-0.716,0.316-0.716,1.327v3.931v0.44
				c0,0.582,0.135,0.718,0.681,0.742l0.402,0.012h1.107c0.853,0,1.058-0.181,1.376-1.193h0.22L101.504,65.95z"/>
			<path fill="#4E4646" d="M108.502,65.95h-2.509v-0.209h0.099c0.5,0,0.707-0.316,0.707-1.107v-0.218v-3.908v-0.219
				c0-0.793-0.206-1.108-0.707-1.108h-0.099v-0.207h2.509v0.207h-0.083c-0.514,0-0.707,0.316-0.707,1.108v0.219v3.908v0.218
				c0,0.792,0.193,1.107,0.707,1.107h0.083V65.95z"/>
			<path fill="#4E4646" d="M116.815,60.507h-0.206l-0.012-0.098c-0.134-0.548-0.279-0.828-0.584-1.059
				c-0.266-0.207-0.595-0.328-0.949-0.328c-0.73,0-1.255,0.474-1.255,1.107c0,0.341,0.173,0.717,0.454,0.986
				c0.169,0.158,0.363,0.303,0.582,0.45c0.157,0.098,0.424,0.268,0.804,0.5c0.558,0.352,0.839,0.572,1.081,0.863
				c0.306,0.366,0.464,0.767,0.464,1.207c0,1.093-0.889,1.984-1.985,1.984c-0.376,0-0.583-0.049-1.156-0.23
				c-0.28-0.099-0.389-0.135-0.438-0.135c-0.122,0-0.206,0.084-0.267,0.268h-0.207v-1.886h0.207l0.012,0.133
				c0.097,0.657,0.23,0.912,0.631,1.217c0.294,0.244,0.66,0.363,1.036,0.363c0.841,0,1.402-0.509,1.402-1.265
				c0-0.424-0.158-0.717-0.585-1.058c-0.255-0.219-0.524-0.414-0.816-0.597c-0.451-0.292-0.742-0.474-0.902-0.584
				c-0.167-0.121-0.338-0.279-0.497-0.464c-0.304-0.374-0.45-0.79-0.45-1.276c0-1.072,0.779-1.802,1.897-1.802
				c0.354,0,0.56,0.037,0.975,0.171c0.24,0.086,0.327,0.098,0.4,0.098c0.096,0,0.134-0.036,0.171-0.147
				c0-0.012,0.011-0.024,0.011-0.049h0.183V60.507z"/>
			<path fill="#4E4646" d="M123.375,62.612v1.803v0.218c0,0.792,0.208,1.107,0.707,1.107h0.085v0.209h-2.519v-0.209h0.098
				c0.501,0,0.696-0.316,0.696-1.107v-0.218v-3.908v-0.219c0-0.793-0.195-1.108-0.696-1.108h-0.098v-0.207h2.519v0.207h-0.085
				c-0.499,0-0.707,0.316-0.707,1.108v0.219v1.753h3.798v-1.753v-0.219c0-0.793-0.195-1.108-0.703-1.108h-0.087v-0.207h2.495v0.207
				h-0.085c-0.498,0-0.705,0.316-0.705,1.108v0.219v3.908v0.218c0,0.792,0.207,1.107,0.705,1.107h0.085v0.209h-2.495v-0.209h0.087
				c0.508,0,0.703-0.316,0.703-1.107v-0.218v-1.803H123.375z"/>
			<path fill="#4E4646" d="M138.482,60.142h-0.197c-0.172-0.731-0.402-0.915-1.181-0.915h-2.009v3.068h1.694
				c0.766,0,0.864-0.061,0.996-0.607c0.013-0.012,0.013-0.037,0.025-0.075h0.208v1.692h-0.208c-0.156-0.596-0.254-0.67-1.009-0.67
				h-1.705v2.362v0.181c0,0.475,0.073,0.513,0.732,0.513h1.033c1.047,0,1.327-0.171,1.668-1.048h0.206l-0.317,1.305h-5.026v-0.209
				h0.097c0.499,0,0.694-0.316,0.694-1.107v-0.218v-3.908v-0.219c0-0.793-0.195-1.108-0.694-1.108h-0.097v-0.207h5.026
				L138.482,60.142z"/>
			<path fill="#4E4646" d="M143.215,65.741h0.084c0.5,0,0.707-0.316,0.707-1.107v-0.218v-3.908v-0.219
				c0-0.793-0.206-1.108-0.707-1.108h-0.084v-0.207h2.813c0.888,0,1.18,0.024,1.631,0.134c0.278,0.073,0.561,0.17,0.829,0.304
				c1.178,0.609,1.897,1.801,1.897,3.165c0,1.461-0.767,2.593-2.093,3.08c-0.549,0.207-1.108,0.294-1.886,0.294h-3.191V65.741z
				 M144.942,64.388c0,1.011,0.195,1.293,0.902,1.293h0.535c1.059,0,1.717-0.256,2.241-0.889c0.46-0.56,0.692-1.278,0.692-2.215
				c0-1.291-0.498-2.361-1.341-2.921c-0.483-0.317-1.057-0.45-1.993-0.45h-1.037V64.388z"/>
		</g>
		<g>
			<path fill="#4E4646" d="M89.378,79.984c0,0.803,0,0.975,0.762,0.975v0.228h-2.382v-0.228c0.725-0.014,0.749-0.2,0.749-0.949
				v-2.235c0-0.723,0-0.924-0.749-0.949V76.6h2.382v0.227c-0.762,0.039-0.762,0.187-0.762,0.949V79.984z"/>
			<path fill="#4E4646" d="M93.056,83.168c0.803-0.053,1.618-0.255,2.314-0.804c1.11-0.868,1.38-2.487,1.393-2.969
				c-0.429,0.509-0.964,0.844-1.606,0.844c-0.896,0-1.82-0.603-1.82-1.712c0-0.939,0.749-1.9,2.059-1.9
				c1.512,0,2.342,1.311,2.342,2.582c0,2.045-2.061,4.306-4.682,4.172V83.168z M95.437,79.77c0.71,0,1.177-0.643,1.326-0.843
				c-0.149-2.02-1.339-2.02-1.499-2.02c-0.134,0-1.018,0.081-1.018,1.297C94.246,79.223,94.821,79.77,95.437,79.77z"/>
			<path fill="#4E4646" d="M103.032,74.698c0.886,0,1.699,0.59,1.699,1.526c0,0.589-0.266,1.029-1.124,1.576
				c0.549,0.431,1.272,0.978,1.272,1.89c0,0.669-0.485,1.858-2.022,1.858c-1.19,0-1.845-0.788-1.845-1.618
				c0-0.523,0.214-1.138,1.338-1.818c-0.334-0.254-1.083-0.844-1.083-1.794C101.269,75.541,101.923,74.698,103.032,74.698z
				 M102.604,78.297c-0.906,0.508-0.906,1.337-0.906,1.458c0,0.697,0.518,1.498,1.375,1.498c0.455,0,1.123-0.282,1.123-1.043
				C104.196,79.433,103.583,78.966,102.604,78.297z M103.368,77.615c0.31-0.202,0.736-0.495,0.736-1.204
				c0-0.828-0.536-1.418-1.257-1.418c-0.642,0-0.976,0.496-0.976,0.91C101.871,76.692,102.821,77.307,103.368,77.615z"/>
			<path fill="#4E4646" d="M107.379,82.886c0.616,0.468,1.152,0.468,1.284,0.468c0.387,0,1.325-0.267,1.325-1.459
				c0-0.602-0.347-1.778-1.538-1.778c-0.201,0-0.32,0.026-0.441,0.052l-0.04-0.24c0.896-0.252,0.936-0.267,1.204-0.467
				c0.415-0.309,0.64-0.777,0.64-1.245c0-0.655-0.454-1.245-1.07-1.245c-0.534,0-0.748,0.363-0.857,0.549l-0.201-0.121
				c0.147-0.308,0.482-0.802,1.338-0.802c0.87,0,1.646,0.603,1.646,1.525c0,1.071-0.857,1.471-1.271,1.673
				c1.164,0.267,1.566,1.161,1.566,1.804c0,0.881-0.696,2.059-2.155,2.059c-0.777,0-1.336-0.346-1.578-0.588L107.379,82.886z"/>
		</g>
	</g>
</g>
</svg>
